<?xml version="1.0" encoding="UTF-8"?>
<svg width="19px" height="16px" viewBox="0 0 19 16" version="1.1" xmlns="http://www.w3.org/2000/svg" xmlns:xlink="http://www.w3.org/1999/xlink">
    <!-- Generator: Sketch 53 (72520) - https://sketchapp.com -->
    <title>Group 61</title>
    <desc>Created with Sketch.</desc>
    <g id="Page-1" stroke="none" stroke-width="1" fill="none" fill-rule="evenodd">
        <g id="step-4" transform="translate(-208.000000, -53.000000)" fill="#444444" fill-rule="nonzero">
            <g id="Group-61" transform="translate(208.500000, 53.500032)">
                <g id="Shape-2">
                    <path d="M5.76848465,4.777907 C6.45950539,1.537907 9.72751369,-0.544456278 13.0702108,0.125270285 C16.412878,0.795846457 18.5570589,3.96613454 17.8660232,7.20878591 C17.1758988,10.4487859 13.9069942,12.5311492 10.564312,11.8614226 C7.22162988,11.1908465 5.07565643,8.017907 5.76848465,4.777907 Z M12.7111817,1.612907 C10.2332017,1.1170281 7.81008797,2.66114919 7.29900747,5.06466482 C6.78794191,7.469074 8.37875353,9.81966482 10.8576299,10.3146648 C13.3356398,10.8105437 15.7587386,9.26730153 16.2725228,6.862907 C16.7835884,4.4620281 15.1927768,2.11143728 12.7111817,1.612907 Z M0.845790871,13.3587859 L12.468249,13.3587859 C12.9352332,13.3587859 13.3140398,13.7258465 13.3140398,14.1793767 C13.3140398,14.6320134 12.9352332,14.999074 12.468249,14.999074 L0.845790871,14.999074 C0.622664709,15.0002465 0.408202576,14.9144496 0.249585325,14.7605583 C0.0909680732,14.606667 0.00118930238,14.3972878 -2.84217094e-13,14.1784832 C-2.84217094e-13,13.7258465 0.377910373,13.3587859 0.845790871,13.3587859 L0.845790871,13.3587859 Z M0.845790871,8.05496755 L4.22716183,8.05496755 C4.69414606,8.05496755 5.0729527,8.4220281 5.0729527,8.87554372 C5.0729527,9.32819509 4.69414606,9.69525564 4.22717676,9.69525564 L0.845775934,9.69525564 C0.622652352,9.69642425 0.408194059,9.61062564 0.249580043,9.45673476 C0.0909660272,9.30284388 0.00118930971,9.09346684 -2.71782596e-13,8.87466482 C-2.71782596e-13,8.4220281 0.377910373,8.054074 0.845790871,8.054074 L0.845790871,8.05496755 Z M0.845790871,2.57908864 L4.22716183,2.57908864 C4.69414606,2.57908864 5.0729527,2.9470281 5.0729527,3.39966482 C5.0729527,3.85231618 4.69414606,4.22027028 4.22717676,4.22027028 L0.845775934,4.22027028 C0.622647203,4.22143889 0.408184402,4.13563626 0.249569527,3.98173905 C0.0909546522,3.82784184 0.00118141366,3.61845728 -2.77999845e-13,3.39965017 C-2.77999845e-13,2.94701345 0.377910373,2.579074 0.845790871,2.579074 L0.845790871,2.57908864 Z" id="Shape"></path>
                </g>
                <path d="M15.3619469,10.1055437 L17.8696232,13.7549529 C18.1287635,14.1343767 17.9749046,14.6223162 17.5250091,14.8402556 L17.417039,14.8931951 C16.9671436,15.112907 16.3894855,14.9823162 16.1303452,14.6020134 L13.6226689,10.9508465 C13.3635286,10.5714373 13.5173876,10.0834978 13.967283,9.86466482 L14.0752531,9.81172536 C14.5251485,9.592907 15.1028066,9.72349782 15.3619469,10.1055437 Z" id="Path"></path>
            </g>
        </g>
    </g>
</svg>