<svg width="14" height="14" viewBox="0 0 14 14" fill="none" xmlns="http://www.w3.org/2000/svg">
<path fill-rule="evenodd" clip-rule="evenodd" d="M13.8921 0.116185C13.823 0.041793 13.7293 0 13.6316 0H0.368421C0.27071 0 0.177 0.041793 0.107908 0.116185C0.0388157 0.190577 0 0.291474 0 0.39668V1.19004C0 1.29525 0.0388157 1.39614 0.107908 1.47054C0.177 1.54493 0.27071 1.58672 0.368421 1.58672H13.6316C13.7293 1.58672 13.823 1.54493 13.8921 1.47054C13.9612 1.39614 14 1.29525 14 1.19004V0.39668C14 0.291474 13.9612 0.190577 13.8921 0.116185ZM11.7895 4.36348C11.7895 4.1444 11.6245 3.9668 11.4211 3.9668H10.6842C10.4807 3.9668 10.3158 4.1444 10.3158 4.36348V13.0083L10.3176 13.0734C10.3414 13.4618 10.5739 13.7993 10.9123 13.9364C11.2506 14.0735 11.6322 13.9848 11.8878 13.7097L13.8921 11.5517C14.0359 11.3968 14.0359 11.1457 13.8921 10.9908L13.3711 10.4299C13.2272 10.2751 12.994 10.2751 12.8502 10.4299L11.7895 11.5716V4.36348ZM7.99735 12.0166C7.92826 11.9422 7.83455 11.9004 7.73684 11.9004H0.368421C0.27071 11.9004 0.177 11.9422 0.107908 12.0166C0.0388157 12.091 0 12.1919 0 12.2971V13.0904C0 13.1956 0.0388157 13.2965 0.107908 13.3709C0.177 13.4453 0.27071 13.4871 0.368421 13.4871H7.73684C7.83455 13.4871 7.92826 13.4453 7.99735 13.3709C8.06645 13.2965 8.10526 13.1956 8.10526 13.0904V12.2971C8.10526 12.1919 8.06645 12.091 7.99735 12.0166ZM7.73684 5.9502C7.83455 5.9502 7.92826 5.99199 7.99735 6.06638C8.06645 6.14078 8.10526 6.24167 8.10526 6.34688V7.14024C8.10526 7.24545 8.06645 7.34634 7.99735 7.42074C7.92826 7.49513 7.83455 7.53692 7.73684 7.53692H0.368421C0.27071 7.53692 0.177 7.49513 0.107908 7.42074C0.0388157 7.34634 0 7.24545 0 7.14024V6.34688C0 6.24167 0.0388157 6.14078 0.107908 6.06638C0.177 5.99199 0.27071 5.9502 0.368421 5.9502H7.73684Z" fill="#808080"/>
</svg>
