<?xml version="1.0" encoding="UTF-8"?>
<svg width="17px" height="17px" viewBox="0 0 17 17" version="1.1" xmlns="http://www.w3.org/2000/svg" xmlns:xlink="http://www.w3.org/1999/xlink">
    <title>paixu-03</title>
    <g id="Page-1" stroke="none" stroke-width="1" fill="none" fill-rule="evenodd">
        <g id="2.8" transform="translate(-1638.000000, -223.000000)" fill="#989898" fill-rule="nonzero">
            <g id="paixu-03" transform="translate(1638.000000, 223.000000)">
                <path d="M9.92669365,12.9625 C9.84148598,12.9625 9.75627832,12.9625 9.71367447,12.92 C9.45805146,12.835 9.28763612,12.58 9.28763612,12.325 L9.28763612,4.675 C9.28763612,4.335 9.58586296,4.0375 9.92669365,4.0375 C10.2675243,4.0375 10.5657512,4.335 10.5657512,4.675 L10.5657512,10.625 L11.3326202,9.775 C11.5882432,9.52 11.9716778,9.47750001 12.2273008,9.73250001 C12.4829238,9.98750001 12.5255276,10.37 12.2699046,10.625 L10.3953359,12.75 C10.2675243,12.8775 10.097109,12.9625 9.92669365,12.9625 L9.92669365,12.9625 Z M7.11484052,12.9625 C6.77400983,12.9625 6.47578299,12.665 6.47578299,12.325 L6.47578299,6.375 L5.70891395,7.225 C5.45329094,7.48 5.06985642,7.52249999 4.81423341,7.26749999 C4.55861039,7.01249999 4.51600657,6.62999999 4.77162958,6.375 L6.64619832,4.25000001 C6.90182133,3.99500001 7.28525585,3.95250002 7.54087887,4.2075 C7.66869037,4.335 7.75389805,4.50499999 7.75389805,4.675 L7.75389805,12.325 C7.75389805,12.665 7.45567121,12.9625 7.11484052,12.9625 L7.11484052,12.9625 Z" id="形状"></path>
                <path d="M14.2722849,17 L2.76924931,17 C1.23551123,17 0,15.7675 0,14.2375 L0,2.7625 C0,1.23250001 1.23551123,0 2.76924931,0 L14.229681,0 C15.7634191,0 16.9989303,1.23250001 16.9989303,2.7625 L16.9989303,14.195 C17.0415342,15.7675 15.8060229,17 14.2722849,17 Z M2.76924931,1.275 C1.95977644,1.275 1.27811506,1.95500001 1.27811506,2.7625 L1.27811506,14.195 C1.27811506,15.0025 1.95977642,15.6825 2.76924931,15.6825 L14.229681,15.6825 C15.0391539,15.6825 15.7208153,15.0025 15.7208153,14.195 L15.7208153,2.7625 C15.7634191,1.95500001 15.0817577,1.275 14.2722849,1.275 L2.76924931,1.275 Z" id="形状"></path>
            </g>
        </g>
    </g>
</svg>