<?xml version="1.0" encoding="UTF-8"?>
<svg width="17px" height="17px" viewBox="0 0 17 17" version="1.1" xmlns="http://www.w3.org/2000/svg" xmlns:xlink="http://www.w3.org/1999/xlink">
    <title>编组 62</title>
    <g id="Page-1" stroke="none" stroke-width="1" fill="none" fill-rule="evenodd">
        <g id="2.8" transform="translate(-236.000000, -66.000000)" fill="#989898" fill-rule="nonzero">
            <g id="编组-62" transform="translate(244.500000, 74.500000) scale(1, -1) translate(-244.500000, -74.500000) translate(236.000000, 66.000000)">
                <g id="paixu-03">
                    <path d="M14.2722849,17 L2.76924931,17 C1.23551123,17 0,15.7675 0,14.2375 L0,2.7625 C0,1.23250001 1.23551123,0 2.76924931,0 L14.229681,0 C15.7634191,0 16.9989303,1.23250001 16.9989303,2.7625 L16.9989303,14.195 C17.0415342,15.7675 15.8060229,17 14.2722849,17 Z M2.76924931,1.275 C1.95977644,1.275 1.27811506,1.95500001 1.27811506,2.7625 L1.27811506,14.195 C1.27811506,15.0025 1.95977642,15.6825 2.76924931,15.6825 L14.229681,15.6825 C15.0391539,15.6825 15.7208153,15.0025 15.7208153,14.195 L15.7208153,2.7625 C15.7634191,1.95500001 15.0817577,1.275 14.2722849,1.275 L2.76924931,1.275 Z" id="形状"></path>
                </g>
                <g id="zhankai" transform="translate(8.500000, 9.000000) rotate(-90.000000) translate(-8.500000, -9.000000) translate(3.500000, 4.000000)">
                    <path d="M5.59359938,4.999814 L9.83733608,0.884255772 C10.049732,0.683875192 10.0547856,0.354534831 9.848632,0.14811183 C9.63600848,-0.0520337292 9.29647064,-0.0474383267 9.08968724,0.158383606 L4.48518703,4.62249743 C4.43129349,4.67559415 4.38944933,4.73904057 4.36234388,4.80875896 C4.35245995,4.83135687 4.35245995,4.85669392 4.34610599,4.8806614 C4.33763405,4.91969414 4.32422014,4.95872689 4.32422014,4.999814 C4.32422014,5.0409011 4.33692805,5.07924906 4.34610599,5.1189666 C4.35245995,5.14224929 4.35245995,5.16827112 4.36234388,5.19086903 C4.38925947,5.26067962 4.4311276,5.32416238 4.48518703,5.37713057 L9.08898124,9.84192917 C9.18810449,9.94103816 9.32377057,9.99787647 9.46611319,9.99998912 C9.6084558,10.0019864 9.74580574,9.94908945 9.847926,9.85288573 C10.0539993,9.6466959 10.0489443,9.31757071 9.83663008,9.11742658 L5.59359938,4.999814 Z" id="路径"></path>
                    <path d="M1.26867324,4.999814 L5.51240994,0.884255772 C5.72480587,0.683875192 5.72985951,0.354534831 5.52370586,0.14811183 C5.42174105,0.0515193418 5.28434458,-0.00175446645 5.14182998,1.10033265e-12 C4.99931538,0.00184267657 4.86339442,0.058565822 4.76405511,0.157698821 L0.160966889,4.62181264 C0.107073352,4.67490937 0.0652291884,4.73835579 0.0381237368,4.80807418 C0.028239805,4.83067209 0.028239805,4.85600913 0.022591844,4.8806614 C0.0134139074,4.91969414 0,4.95872689 0,4.999814 C0,5.0409011 0.0134139074,5.07924906 0.022591844,5.11828181 C0.0289458001,5.14224929 0.0289458001,5.16758634 0.0381237368,5.19086903 C0.0650393277,5.26067962 0.10690746,5.32416238 0.160966889,5.37713057 L4.76405511,9.84124439 C4.86311022,9.94065468 4.99887408,9.99775097 5.14139044,10 C5.28390681,10.002119 5.42146248,9.94921121 5.52370586,9.85288573 C5.73005059,9.64665002 5.72531285,9.31731284 5.51311593,9.11674179 L1.26867324,4.999814 Z" id="路径"></path>
                </g>
            </g>
        </g>
    </g>
</svg>