<svg width="371" height="14" viewBox="0 0 371 14" fill="none" xmlns="http://www.w3.org/2000/svg">
<rect width="371" height="14" fill="white"/>
<path d="M60 12C62.7614 12 65 9.76142 65 7C65 4.23858 62.7614 2 60 2C57.2386 2 55 4.23858 55 7C55 9.76142 57.2386 12 60 12Z" fill="#7891AA"/>
<path d="M73.332 7.47266L72.0254 3.66992L70.6367 7.47266H73.332ZM71.416 2.39258H72.7344L75.8574 11H74.5801L73.707 8.42188H70.3027L69.3711 11H68.1758L71.416 2.39258ZM77.4453 7.93555C77.4453 8.60742 77.5879 9.16992 77.873 9.62305C78.1582 10.0762 78.6152 10.3027 79.2441 10.3027C79.7324 10.3027 80.1328 10.0938 80.4453 9.67578C80.7617 9.25391 80.9199 8.65039 80.9199 7.86523C80.9199 7.07227 80.7578 6.48633 80.4336 6.10742C80.1094 5.72461 79.709 5.5332 79.2324 5.5332C78.7012 5.5332 78.2695 5.73633 77.9375 6.14258C77.6094 6.54883 77.4453 7.14648 77.4453 7.93555ZM79.0332 4.61328C79.5137 4.61328 79.916 4.71484 80.2402 4.91797C80.4277 5.03516 80.6406 5.24023 80.8789 5.5332V2.36328H81.8926V11H80.9434V10.127C80.6973 10.5137 80.4062 10.793 80.0703 10.9648C79.7344 11.1367 79.3496 11.2227 78.916 11.2227C78.2168 11.2227 77.6113 10.9297 77.0996 10.3438C76.5879 9.75391 76.332 8.9707 76.332 7.99414C76.332 7.08008 76.5645 6.28906 77.0293 5.62109C77.498 4.94922 78.166 4.61328 79.0332 4.61328ZM84.125 7.93555C84.125 8.60742 84.2676 9.16992 84.5527 9.62305C84.8379 10.0762 85.2949 10.3027 85.9238 10.3027C86.4121 10.3027 86.8125 10.0938 87.125 9.67578C87.4414 9.25391 87.5996 8.65039 87.5996 7.86523C87.5996 7.07227 87.4375 6.48633 87.1133 6.10742C86.7891 5.72461 86.3887 5.5332 85.9121 5.5332C85.3809 5.5332 84.9492 5.73633 84.6172 6.14258C84.2891 6.54883 84.125 7.14648 84.125 7.93555ZM85.7129 4.61328C86.1934 4.61328 86.5957 4.71484 86.9199 4.91797C87.1074 5.03516 87.3203 5.24023 87.5586 5.5332V2.36328H88.5723V11H87.623V10.127C87.377 10.5137 87.0859 10.793 86.75 10.9648C86.4141 11.1367 86.0293 11.2227 85.5957 11.2227C84.8965 11.2227 84.291 10.9297 83.7793 10.3438C83.2676 9.75391 83.0117 8.9707 83.0117 7.99414C83.0117 7.08008 83.2441 6.28906 83.709 5.62109C84.1777 4.94922 84.8457 4.61328 85.7129 4.61328ZM90.166 4.72461H91.168V5.80859C91.25 5.59766 91.4512 5.3418 91.7715 5.04102C92.0918 4.73633 92.4609 4.58398 92.8789 4.58398C92.8984 4.58398 92.9316 4.58594 92.9785 4.58984C93.0254 4.59375 93.1055 4.60156 93.2188 4.61328V5.72656C93.1562 5.71484 93.0977 5.70703 93.043 5.70312C92.9922 5.69922 92.9355 5.69727 92.873 5.69727C92.3418 5.69727 91.9336 5.86914 91.6484 6.21289C91.3633 6.55273 91.2207 6.94531 91.2207 7.39062V11H90.166V4.72461ZM96.7461 4.58398C97.1914 4.58398 97.623 4.68945 98.041 4.90039C98.459 5.10742 98.7773 5.37695 98.9961 5.70898C99.207 6.02539 99.3477 6.39453 99.418 6.81641C99.4805 7.10547 99.5117 7.56641 99.5117 8.19922H94.9121C94.9316 8.83594 95.082 9.34766 95.3633 9.73438C95.6445 10.1172 96.0801 10.3086 96.6699 10.3086C97.2207 10.3086 97.6602 10.127 97.9883 9.76367C98.1758 9.55273 98.3086 9.30859 98.3867 9.03125H99.4238C99.3965 9.26172 99.3047 9.51953 99.1484 9.80469C98.9961 10.0859 98.8242 10.3164 98.6328 10.4961C98.3125 10.8086 97.916 11.0195 97.4434 11.1289C97.1895 11.1914 96.9023 11.2227 96.582 11.2227C95.8008 11.2227 95.1387 10.9395 94.5957 10.373C94.0527 9.80273 93.7812 9.00586 93.7812 7.98242C93.7812 6.97461 94.0547 6.15625 94.6016 5.52734C95.1484 4.89844 95.8633 4.58398 96.7461 4.58398ZM98.4277 7.36133C98.3848 6.9043 98.2852 6.53906 98.1289 6.26562C97.8398 5.75781 97.3574 5.50391 96.6816 5.50391C96.1973 5.50391 95.791 5.67969 95.4629 6.03125C95.1348 6.37891 94.9609 6.82227 94.9414 7.36133H98.4277ZM101.439 9.03125C101.471 9.38281 101.559 9.65234 101.703 9.83984C101.969 10.1797 102.43 10.3496 103.086 10.3496C103.477 10.3496 103.82 10.2656 104.117 10.0977C104.414 9.92578 104.562 9.66211 104.562 9.30664C104.562 9.03711 104.443 8.83203 104.205 8.69141C104.053 8.60547 103.752 8.50586 103.303 8.39258L102.465 8.18164C101.93 8.04883 101.535 7.90039 101.281 7.73633C100.828 7.45117 100.602 7.05664 100.602 6.55273C100.602 5.95898 100.814 5.47852 101.24 5.11133C101.67 4.74414 102.246 4.56055 102.969 4.56055C103.914 4.56055 104.596 4.83789 105.014 5.39258C105.275 5.74414 105.402 6.12305 105.395 6.5293H104.398C104.379 6.29102 104.295 6.07422 104.146 5.87891C103.904 5.60156 103.484 5.46289 102.887 5.46289C102.488 5.46289 102.186 5.53906 101.979 5.69141C101.775 5.84375 101.674 6.04492 101.674 6.29492C101.674 6.56836 101.809 6.78711 102.078 6.95117C102.234 7.04883 102.465 7.13477 102.77 7.20898L103.467 7.37891C104.225 7.5625 104.732 7.74023 104.99 7.91211C105.4 8.18164 105.605 8.60547 105.605 9.18359C105.605 9.74219 105.393 10.2246 104.967 10.6309C104.545 11.0371 103.9 11.2402 103.033 11.2402C102.1 11.2402 101.438 11.0293 101.047 10.6074C100.66 10.1816 100.453 9.65625 100.426 9.03125H101.439ZM107.439 9.03125C107.471 9.38281 107.559 9.65234 107.703 9.83984C107.969 10.1797 108.43 10.3496 109.086 10.3496C109.477 10.3496 109.82 10.2656 110.117 10.0977C110.414 9.92578 110.562 9.66211 110.562 9.30664C110.562 9.03711 110.443 8.83203 110.205 8.69141C110.053 8.60547 109.752 8.50586 109.303 8.39258L108.465 8.18164C107.93 8.04883 107.535 7.90039 107.281 7.73633C106.828 7.45117 106.602 7.05664 106.602 6.55273C106.602 5.95898 106.814 5.47852 107.24 5.11133C107.67 4.74414 108.246 4.56055 108.969 4.56055C109.914 4.56055 110.596 4.83789 111.014 5.39258C111.275 5.74414 111.402 6.12305 111.395 6.5293H110.398C110.379 6.29102 110.295 6.07422 110.146 5.87891C109.904 5.60156 109.484 5.46289 108.887 5.46289C108.488 5.46289 108.186 5.53906 107.979 5.69141C107.775 5.84375 107.674 6.04492 107.674 6.29492C107.674 6.56836 107.809 6.78711 108.078 6.95117C108.234 7.04883 108.465 7.13477 108.77 7.20898L109.467 7.37891C110.225 7.5625 110.732 7.74023 110.99 7.91211C111.4 8.18164 111.605 8.60547 111.605 9.18359C111.605 9.74219 111.393 10.2246 110.967 10.6309C110.545 11.0371 109.9 11.2402 109.033 11.2402C108.1 11.2402 107.438 11.0293 107.047 10.6074C106.66 10.1816 106.453 9.65625 106.426 9.03125H107.439Z" fill="#706E6E"/>
<path d="M124 12C126.761 12 129 9.76142 129 7C129 4.23858 126.761 2 124 2C121.239 2 119 4.23858 119 7C119 9.76142 121.239 12 124 12Z" fill="#8AA79B"/>
<path d="M136.916 6.33594C137.463 6.33594 137.895 6.22656 138.211 6.00781C138.531 5.78906 138.691 5.39453 138.691 4.82422C138.691 4.21094 138.469 3.79297 138.023 3.57031C137.785 3.45312 137.467 3.39453 137.068 3.39453H134.221V6.33594H136.916ZM133.055 2.39258H137.039C137.695 2.39258 138.236 2.48828 138.662 2.67969C139.471 3.04688 139.875 3.72461 139.875 4.71289C139.875 5.22852 139.768 5.65039 139.553 5.97852C139.342 6.30664 139.045 6.57031 138.662 6.76953C138.998 6.90625 139.25 7.08594 139.418 7.30859C139.59 7.53125 139.686 7.89258 139.705 8.39258L139.746 9.54688C139.758 9.875 139.785 10.1191 139.828 10.2793C139.898 10.5527 140.023 10.7285 140.203 10.8066V11H138.773C138.734 10.9258 138.703 10.8301 138.68 10.7129C138.656 10.5957 138.637 10.3691 138.621 10.0332L138.551 8.59766C138.523 8.03516 138.314 7.6582 137.924 7.4668C137.701 7.36133 137.352 7.30859 136.875 7.30859H134.221V11H133.055V2.39258ZM144.059 4.58398C144.504 4.58398 144.936 4.68945 145.354 4.90039C145.771 5.10742 146.09 5.37695 146.309 5.70898C146.52 6.02539 146.66 6.39453 146.73 6.81641C146.793 7.10547 146.824 7.56641 146.824 8.19922H142.225C142.244 8.83594 142.395 9.34766 142.676 9.73438C142.957 10.1172 143.393 10.3086 143.982 10.3086C144.533 10.3086 144.973 10.127 145.301 9.76367C145.488 9.55273 145.621 9.30859 145.699 9.03125H146.736C146.709 9.26172 146.617 9.51953 146.461 9.80469C146.309 10.0859 146.137 10.3164 145.945 10.4961C145.625 10.8086 145.229 11.0195 144.756 11.1289C144.502 11.1914 144.215 11.2227 143.895 11.2227C143.113 11.2227 142.451 10.9395 141.908 10.373C141.365 9.80273 141.094 9.00586 141.094 7.98242C141.094 6.97461 141.367 6.15625 141.914 5.52734C142.461 4.89844 143.176 4.58398 144.059 4.58398ZM145.74 7.36133C145.697 6.9043 145.598 6.53906 145.441 6.26562C145.152 5.75781 144.67 5.50391 143.994 5.50391C143.51 5.50391 143.104 5.67969 142.775 6.03125C142.447 6.37891 142.273 6.82227 142.254 7.36133H145.74ZM148.154 2.39258H149.209V11H148.154V2.39258ZM151.605 9.33008C151.605 9.63477 151.717 9.875 151.939 10.0508C152.162 10.2266 152.426 10.3145 152.73 10.3145C153.102 10.3145 153.461 10.2285 153.809 10.0566C154.395 9.77148 154.688 9.30469 154.688 8.65625V7.80664C154.559 7.88867 154.393 7.95703 154.189 8.01172C153.986 8.06641 153.787 8.10547 153.592 8.12891L152.953 8.21094C152.57 8.26172 152.283 8.3418 152.092 8.45117C151.768 8.63477 151.605 8.92773 151.605 9.33008ZM154.16 7.19727C154.402 7.16602 154.564 7.06445 154.646 6.89258C154.693 6.79883 154.717 6.66406 154.717 6.48828C154.717 6.12891 154.588 5.86914 154.33 5.70898C154.076 5.54492 153.711 5.46289 153.234 5.46289C152.684 5.46289 152.293 5.61133 152.062 5.9082C151.934 6.07227 151.85 6.31641 151.811 6.64062H150.826C150.846 5.86719 151.096 5.33008 151.576 5.0293C152.061 4.72461 152.621 4.57227 153.258 4.57227C153.996 4.57227 154.596 4.71289 155.057 4.99414C155.514 5.27539 155.742 5.71289 155.742 6.30664V9.92188C155.742 10.0312 155.764 10.1191 155.807 10.1855C155.854 10.252 155.949 10.2852 156.094 10.2852C156.141 10.2852 156.193 10.2832 156.252 10.2793C156.311 10.2715 156.373 10.2617 156.439 10.25V11.0293C156.275 11.0762 156.15 11.1055 156.064 11.1172C155.979 11.1289 155.861 11.1348 155.713 11.1348C155.35 11.1348 155.086 11.0059 154.922 10.748C154.836 10.6113 154.775 10.418 154.74 10.168C154.525 10.4492 154.217 10.6934 153.814 10.9004C153.412 11.1074 152.969 11.2109 152.484 11.2109C151.902 11.2109 151.426 11.0352 151.055 10.6836C150.688 10.3281 150.504 9.88477 150.504 9.35352C150.504 8.77148 150.686 8.32031 151.049 8C151.412 7.67969 151.889 7.48242 152.479 7.4082L154.16 7.19727ZM157.688 2.97266H158.754V4.72461H159.756V5.58594H158.754V9.68164C158.754 9.90039 158.828 10.0469 158.977 10.1211C159.059 10.1641 159.195 10.1855 159.387 10.1855C159.438 10.1855 159.492 10.1855 159.551 10.1855C159.609 10.1816 159.678 10.1758 159.756 10.168V11C159.635 11.0352 159.508 11.0605 159.375 11.0762C159.246 11.0918 159.105 11.0996 158.953 11.0996C158.461 11.0996 158.127 10.9746 157.951 10.7246C157.775 10.4707 157.688 10.1426 157.688 9.74023V5.58594H156.838V4.72461H157.688V2.97266ZM160.816 4.75391H161.889V11H160.816V4.75391ZM160.816 2.39258H161.889V3.58789H160.816V2.39258ZM165.979 10.3203C166.678 10.3203 167.156 10.0566 167.414 9.5293C167.676 8.99805 167.807 8.4082 167.807 7.75977C167.807 7.17383 167.713 6.69727 167.525 6.33008C167.229 5.75195 166.717 5.46289 165.99 5.46289C165.346 5.46289 164.877 5.70898 164.584 6.20117C164.291 6.69336 164.145 7.28711 164.145 7.98242C164.145 8.65039 164.291 9.20703 164.584 9.65234C164.877 10.0977 165.342 10.3203 165.979 10.3203ZM166.02 4.54297C166.828 4.54297 167.512 4.8125 168.07 5.35156C168.629 5.89062 168.908 6.68359 168.908 7.73047C168.908 8.74219 168.662 9.57812 168.17 10.2383C167.678 10.8984 166.914 11.2285 165.879 11.2285C165.016 11.2285 164.33 10.9375 163.822 10.3555C163.314 9.76953 163.061 8.98438 163.061 8C163.061 6.94531 163.328 6.10547 163.863 5.48047C164.398 4.85547 165.117 4.54297 166.02 4.54297ZM170.168 4.72461H171.17V5.61523C171.467 5.24805 171.781 4.98438 172.113 4.82422C172.445 4.66406 172.814 4.58398 173.221 4.58398C174.111 4.58398 174.713 4.89453 175.025 5.51562C175.197 5.85547 175.283 6.3418 175.283 6.97461V11H174.211V7.04492C174.211 6.66211 174.154 6.35352 174.041 6.11914C173.854 5.72852 173.514 5.5332 173.021 5.5332C172.771 5.5332 172.566 5.55859 172.406 5.60938C172.117 5.69531 171.863 5.86719 171.645 6.125C171.469 6.33203 171.354 6.54688 171.299 6.76953C171.248 6.98828 171.223 7.30273 171.223 7.71289V11H170.168V4.72461ZM177.475 9.03125C177.506 9.38281 177.594 9.65234 177.738 9.83984C178.004 10.1797 178.465 10.3496 179.121 10.3496C179.512 10.3496 179.855 10.2656 180.152 10.0977C180.449 9.92578 180.598 9.66211 180.598 9.30664C180.598 9.03711 180.479 8.83203 180.24 8.69141C180.088 8.60547 179.787 8.50586 179.338 8.39258L178.5 8.18164C177.965 8.04883 177.57 7.90039 177.316 7.73633C176.863 7.45117 176.637 7.05664 176.637 6.55273C176.637 5.95898 176.85 5.47852 177.275 5.11133C177.705 4.74414 178.281 4.56055 179.004 4.56055C179.949 4.56055 180.631 4.83789 181.049 5.39258C181.311 5.74414 181.438 6.12305 181.43 6.5293H180.434C180.414 6.29102 180.33 6.07422 180.182 5.87891C179.939 5.60156 179.52 5.46289 178.922 5.46289C178.523 5.46289 178.221 5.53906 178.014 5.69141C177.811 5.84375 177.709 6.04492 177.709 6.29492C177.709 6.56836 177.844 6.78711 178.113 6.95117C178.27 7.04883 178.5 7.13477 178.805 7.20898L179.502 7.37891C180.26 7.5625 180.768 7.74023 181.025 7.91211C181.436 8.18164 181.641 8.60547 181.641 9.18359C181.641 9.74219 181.428 10.2246 181.002 10.6309C180.58 11.0371 179.936 11.2402 179.068 11.2402C178.135 11.2402 177.473 11.0293 177.082 10.6074C176.695 10.1816 176.488 9.65625 176.461 9.03125H177.475ZM182.848 2.36328H183.902V5.57422C184.152 5.25781 184.377 5.03516 184.576 4.90625C184.916 4.68359 185.34 4.57227 185.848 4.57227C186.758 4.57227 187.375 4.89062 187.699 5.52734C187.875 5.875 187.963 6.35742 187.963 6.97461V11H186.879V7.04492C186.879 6.58398 186.82 6.24609 186.703 6.03125C186.512 5.6875 186.152 5.51562 185.625 5.51562C185.188 5.51562 184.791 5.66602 184.436 5.9668C184.08 6.26758 183.902 6.83594 183.902 7.67188V11H182.848V2.36328ZM189.527 4.75391H190.6V11H189.527V4.75391ZM189.527 2.39258H190.6V3.58789H189.527V2.39258ZM194.848 10.291C195.34 10.291 195.748 10.0859 196.072 9.67578C196.4 9.26172 196.564 8.64453 196.564 7.82422C196.564 7.32422 196.492 6.89453 196.348 6.53516C196.074 5.84375 195.574 5.49805 194.848 5.49805C194.117 5.49805 193.617 5.86328 193.348 6.59375C193.203 6.98438 193.131 7.48047 193.131 8.08203C193.131 8.56641 193.203 8.97852 193.348 9.31836C193.621 9.9668 194.121 10.291 194.848 10.291ZM192.117 4.75391H193.143V5.58594C193.354 5.30078 193.584 5.08008 193.834 4.92383C194.189 4.68945 194.607 4.57227 195.088 4.57227C195.799 4.57227 196.402 4.8457 196.898 5.39258C197.395 5.93555 197.643 6.71289 197.643 7.72461C197.643 9.0918 197.285 10.0684 196.57 10.6543C196.117 11.0254 195.59 11.2109 194.988 11.2109C194.516 11.2109 194.119 11.1074 193.799 10.9004C193.611 10.7832 193.402 10.582 193.172 10.2969V13.502H192.117V4.75391Z" fill="#706E6E"/>
<path d="M11 12C13.7614 12 16 9.76142 16 7C16 4.23858 13.7614 2 11 2C8.23858 2 6 4.23858 6 7C6 9.76142 8.23858 12 11 12Z" fill="#AAB0BE"/>
<path d="M25.1777 2.39258V3.41797H22.2773V11H21.0938V3.41797H18.1934V2.39258H25.1777ZM25.6641 4.75391H26.7363V11H25.6641V4.75391ZM25.6641 2.39258H26.7363V3.58789H25.6641V2.39258ZM28.3359 4.72461H29.3789V5.61523C29.6289 5.30664 29.8555 5.08203 30.0586 4.94141C30.4062 4.70312 30.8008 4.58398 31.2422 4.58398C31.7422 4.58398 32.1445 4.70703 32.4492 4.95312C32.6211 5.09375 32.7773 5.30078 32.918 5.57422C33.1523 5.23828 33.4277 4.99023 33.7441 4.83008C34.0605 4.66602 34.416 4.58398 34.8105 4.58398C35.6543 4.58398 36.2285 4.88867 36.5332 5.49805C36.6973 5.82617 36.7793 6.26758 36.7793 6.82227V11H35.6836V6.64062C35.6836 6.22266 35.5781 5.93555 35.3672 5.7793C35.1602 5.62305 34.9062 5.54492 34.6055 5.54492C34.1914 5.54492 33.834 5.68359 33.5332 5.96094C33.2363 6.23828 33.0879 6.70117 33.0879 7.34961V11H32.0156V6.9043C32.0156 6.47852 31.9648 6.16797 31.8633 5.97266C31.7031 5.67969 31.4043 5.5332 30.9668 5.5332C30.5684 5.5332 30.2051 5.6875 29.877 5.99609C29.5527 6.30469 29.3906 6.86328 29.3906 7.67188V11H28.3359V4.72461ZM40.9453 4.58398C41.3906 4.58398 41.8223 4.68945 42.2402 4.90039C42.6582 5.10742 42.9766 5.37695 43.1953 5.70898C43.4062 6.02539 43.5469 6.39453 43.6172 6.81641C43.6797 7.10547 43.7109 7.56641 43.7109 8.19922H39.1113C39.1309 8.83594 39.2812 9.34766 39.5625 9.73438C39.8438 10.1172 40.2793 10.3086 40.8691 10.3086C41.4199 10.3086 41.8594 10.127 42.1875 9.76367C42.375 9.55273 42.5078 9.30859 42.5859 9.03125H43.623C43.5957 9.26172 43.5039 9.51953 43.3477 9.80469C43.1953 10.0859 43.0234 10.3164 42.832 10.4961C42.5117 10.8086 42.1152 11.0195 41.6426 11.1289C41.3887 11.1914 41.1016 11.2227 40.7812 11.2227C40 11.2227 39.3379 10.9395 38.7949 10.373C38.252 9.80273 37.9805 9.00586 37.9805 7.98242C37.9805 6.97461 38.2539 6.15625 38.8008 5.52734C39.3477 4.89844 40.0625 4.58398 40.9453 4.58398ZM42.627 7.36133C42.584 6.9043 42.4844 6.53906 42.3281 6.26562C42.0391 5.75781 41.5566 5.50391 40.8809 5.50391C40.3965 5.50391 39.9902 5.67969 39.6621 6.03125C39.334 6.37891 39.1602 6.82227 39.1406 7.36133H42.627Z" fill="#706E6E"/>
<path d="M341.025 2.39258H347.301V3.44727H342.162V6.06055H346.914V7.05664H342.162V9.97461H347.389V11H341.025V2.39258ZM348.777 4.72461H349.779V5.61523C350.076 5.24805 350.391 4.98438 350.723 4.82422C351.055 4.66406 351.424 4.58398 351.83 4.58398C352.721 4.58398 353.322 4.89453 353.635 5.51562C353.807 5.85547 353.893 6.3418 353.893 6.97461V11H352.82V7.04492C352.82 6.66211 352.764 6.35352 352.65 6.11914C352.463 5.72852 352.123 5.5332 351.631 5.5332C351.381 5.5332 351.176 5.55859 351.016 5.60938C350.727 5.69531 350.473 5.86719 350.254 6.125C350.078 6.33203 349.963 6.54688 349.908 6.76953C349.857 6.98828 349.832 7.30273 349.832 7.71289V11H348.777V4.72461ZM355.668 2.97266H356.734V4.72461H357.736V5.58594H356.734V9.68164C356.734 9.90039 356.809 10.0469 356.957 10.1211C357.039 10.1641 357.176 10.1855 357.367 10.1855C357.418 10.1855 357.473 10.1855 357.531 10.1855C357.59 10.1816 357.658 10.1758 357.736 10.168V11C357.615 11.0352 357.488 11.0605 357.355 11.0762C357.227 11.0918 357.086 11.0996 356.934 11.0996C356.441 11.0996 356.107 10.9746 355.932 10.7246C355.756 10.4707 355.668 10.1426 355.668 9.74023V5.58594H354.818V4.72461H355.668V2.97266ZM358.797 4.75391H359.869V11H358.797V4.75391ZM358.797 2.39258H359.869V3.58789H358.797V2.39258ZM361.68 2.97266H362.746V4.72461H363.748V5.58594H362.746V9.68164C362.746 9.90039 362.82 10.0469 362.969 10.1211C363.051 10.1641 363.188 10.1855 363.379 10.1855C363.43 10.1855 363.484 10.1855 363.543 10.1855C363.602 10.1816 363.67 10.1758 363.748 10.168V11C363.627 11.0352 363.5 11.0605 363.367 11.0762C363.238 11.0918 363.098 11.0996 362.945 11.0996C362.453 11.0996 362.119 10.9746 361.943 10.7246C361.768 10.4707 361.68 10.1426 361.68 9.74023V5.58594H360.83V4.72461H361.68V2.97266ZM368.729 4.72461H369.895C369.746 5.12695 369.416 6.04492 368.904 7.47852C368.521 8.55664 368.201 9.43555 367.943 10.1152C367.334 11.7168 366.904 12.6934 366.654 13.0449C366.404 13.3965 365.975 13.5723 365.365 13.5723C365.217 13.5723 365.102 13.5664 365.02 13.5547C364.941 13.543 364.844 13.5215 364.727 13.4902V12.5293C364.91 12.5801 365.043 12.6113 365.125 12.623C365.207 12.6348 365.279 12.6406 365.342 12.6406C365.537 12.6406 365.68 12.6074 365.77 12.541C365.863 12.4785 365.941 12.4004 366.004 12.3066C366.023 12.2754 366.094 12.1152 366.215 11.8262C366.336 11.5371 366.424 11.3223 366.479 11.1816L364.158 4.72461H365.354L367.035 9.83398L368.729 4.72461Z" fill="#706E6E"/>
<path d="M332 12C334.761 12 337 9.76142 337 7C337 4.23858 334.761 2 332 2C329.239 2 327 4.23858 327 7C327 9.76142 329.239 12 332 12Z" fill="#DDB997"/>
<path d="M261 12C263.761 12 266 9.76142 266 7C266 4.23858 263.761 2 261 2C258.239 2 256 4.23858 256 7C256 9.76142 258.239 12 261 12Z" fill="#CA9087"/>
<path d="M273.541 2.1582C274.631 2.1582 275.477 2.44531 276.078 3.01953C276.68 3.59375 277.014 4.24609 277.08 4.97656H275.943C275.814 4.42188 275.557 3.98242 275.17 3.6582C274.787 3.33398 274.248 3.17188 273.553 3.17188C272.705 3.17188 272.02 3.4707 271.496 4.06836C270.977 4.66211 270.717 5.57422 270.717 6.80469C270.717 7.8125 270.951 8.63086 271.42 9.25977C271.893 9.88477 272.596 10.1973 273.529 10.1973C274.389 10.1973 275.043 9.86719 275.492 9.20703C275.73 8.85938 275.908 8.40234 276.025 7.83594H277.162C277.061 8.74219 276.725 9.50195 276.154 10.1152C275.471 10.8535 274.549 11.2227 273.389 11.2227C272.389 11.2227 271.549 10.9199 270.869 10.3145C269.975 9.51367 269.527 8.27734 269.527 6.60547C269.527 5.33594 269.863 4.29492 270.535 3.48242C271.262 2.59961 272.264 2.1582 273.541 2.1582ZM281.059 4.58398C281.504 4.58398 281.936 4.68945 282.354 4.90039C282.771 5.10742 283.09 5.37695 283.309 5.70898C283.52 6.02539 283.66 6.39453 283.73 6.81641C283.793 7.10547 283.824 7.56641 283.824 8.19922H279.225C279.244 8.83594 279.395 9.34766 279.676 9.73438C279.957 10.1172 280.393 10.3086 280.982 10.3086C281.533 10.3086 281.973 10.127 282.301 9.76367C282.488 9.55273 282.621 9.30859 282.699 9.03125H283.736C283.709 9.26172 283.617 9.51953 283.461 9.80469C283.309 10.0859 283.137 10.3164 282.945 10.4961C282.625 10.8086 282.229 11.0195 281.756 11.1289C281.502 11.1914 281.215 11.2227 280.895 11.2227C280.113 11.2227 279.451 10.9395 278.908 10.373C278.365 9.80273 278.094 9.00586 278.094 7.98242C278.094 6.97461 278.367 6.15625 278.914 5.52734C279.461 4.89844 280.176 4.58398 281.059 4.58398ZM282.74 7.36133C282.697 6.9043 282.598 6.53906 282.441 6.26562C282.152 5.75781 281.67 5.50391 280.994 5.50391C280.51 5.50391 280.104 5.67969 279.775 6.03125C279.447 6.37891 279.273 6.82227 279.254 7.36133H282.74ZM285.154 2.39258H286.209V11H285.154V2.39258ZM290.41 4.58398C290.855 4.58398 291.287 4.68945 291.705 4.90039C292.123 5.10742 292.441 5.37695 292.66 5.70898C292.871 6.02539 293.012 6.39453 293.082 6.81641C293.145 7.10547 293.176 7.56641 293.176 8.19922H288.576C288.596 8.83594 288.746 9.34766 289.027 9.73438C289.309 10.1172 289.744 10.3086 290.334 10.3086C290.885 10.3086 291.324 10.127 291.652 9.76367C291.84 9.55273 291.973 9.30859 292.051 9.03125H293.088C293.061 9.26172 292.969 9.51953 292.812 9.80469C292.66 10.0859 292.488 10.3164 292.297 10.4961C291.977 10.8086 291.58 11.0195 291.107 11.1289C290.854 11.1914 290.566 11.2227 290.246 11.2227C289.465 11.2227 288.803 10.9395 288.26 10.373C287.717 9.80273 287.445 9.00586 287.445 7.98242C287.445 6.97461 287.719 6.15625 288.266 5.52734C288.812 4.89844 289.527 4.58398 290.41 4.58398ZM292.092 7.36133C292.049 6.9043 291.949 6.53906 291.793 6.26562C291.504 5.75781 291.021 5.50391 290.346 5.50391C289.861 5.50391 289.455 5.67969 289.127 6.03125C288.799 6.37891 288.625 6.82227 288.605 7.36133H292.092ZM294.395 2.36328H295.42V5.48633C295.65 5.18555 295.926 4.95703 296.246 4.80078C296.566 4.64062 296.914 4.56055 297.289 4.56055C298.07 4.56055 298.703 4.83008 299.188 5.36914C299.676 5.9043 299.92 6.69531 299.92 7.74219C299.92 8.73438 299.68 9.55859 299.199 10.2148C298.719 10.8711 298.053 11.1992 297.201 11.1992C296.725 11.1992 296.322 11.084 295.994 10.8535C295.799 10.7168 295.59 10.498 295.367 10.1973V11H294.395V2.36328ZM297.137 10.2676C297.707 10.2676 298.133 10.041 298.414 9.58789C298.699 9.13477 298.842 8.53711 298.842 7.79492C298.842 7.13477 298.699 6.58789 298.414 6.1543C298.133 5.7207 297.717 5.50391 297.166 5.50391C296.686 5.50391 296.264 5.68164 295.9 6.03711C295.541 6.39258 295.361 6.97852 295.361 7.79492C295.361 8.38477 295.436 8.86328 295.584 9.23047C295.861 9.92188 296.379 10.2676 297.137 10.2676ZM301.186 4.72461H302.188V5.80859C302.27 5.59766 302.471 5.3418 302.791 5.04102C303.111 4.73633 303.48 4.58398 303.898 4.58398C303.918 4.58398 303.951 4.58594 303.998 4.58984C304.045 4.59375 304.125 4.60156 304.238 4.61328V5.72656C304.176 5.71484 304.117 5.70703 304.062 5.70312C304.012 5.69922 303.955 5.69727 303.893 5.69727C303.361 5.69727 302.953 5.86914 302.668 6.21289C302.383 6.55273 302.24 6.94531 302.24 7.39062V11H301.186V4.72461ZM305.152 4.75391H306.225V11H305.152V4.75391ZM305.152 2.39258H306.225V3.58789H305.152V2.39258ZM308.035 2.97266H309.102V4.72461H310.104V5.58594H309.102V9.68164C309.102 9.90039 309.176 10.0469 309.324 10.1211C309.406 10.1641 309.543 10.1855 309.734 10.1855C309.785 10.1855 309.84 10.1855 309.898 10.1855C309.957 10.1816 310.025 10.1758 310.104 10.168V11C309.982 11.0352 309.855 11.0605 309.723 11.0762C309.594 11.0918 309.453 11.0996 309.301 11.0996C308.809 11.0996 308.475 10.9746 308.299 10.7246C308.123 10.4707 308.035 10.1426 308.035 9.74023V5.58594H307.186V4.72461H308.035V2.97266ZM315.084 4.72461H316.25C316.102 5.12695 315.771 6.04492 315.26 7.47852C314.877 8.55664 314.557 9.43555 314.299 10.1152C313.689 11.7168 313.26 12.6934 313.01 13.0449C312.76 13.3965 312.33 13.5723 311.721 13.5723C311.572 13.5723 311.457 13.5664 311.375 13.5547C311.297 13.543 311.199 13.5215 311.082 13.4902V12.5293C311.266 12.5801 311.398 12.6113 311.48 12.623C311.562 12.6348 311.635 12.6406 311.697 12.6406C311.893 12.6406 312.035 12.6074 312.125 12.541C312.219 12.4785 312.297 12.4004 312.359 12.3066C312.379 12.2754 312.449 12.1152 312.57 11.8262C312.691 11.5371 312.779 11.3223 312.834 11.1816L310.514 4.72461H311.709L313.391 9.83398L315.084 4.72461Z" fill="#706E6E"/>
<path d="M210 12C212.761 12 215 9.76142 215 7C215 4.23858 212.761 2 210 2C207.239 2 205 4.23858 205 7C205 9.76142 207.239 12 210 12Z" fill="#AD7982"/>
<path d="M222.629 2.1582C224.148 2.1582 225.273 2.64648 226.004 3.62305C226.574 4.38477 226.859 5.35938 226.859 6.54688C226.859 7.83203 226.533 8.90039 225.881 9.75195C225.115 10.752 224.023 11.252 222.605 11.252C221.281 11.252 220.24 10.8145 219.482 9.93945C218.807 9.0957 218.469 8.0293 218.469 6.74023C218.469 5.57617 218.758 4.58008 219.336 3.75195C220.078 2.68945 221.176 2.1582 222.629 2.1582ZM222.746 10.209C223.773 10.209 224.516 9.8418 224.973 9.10742C225.434 8.36914 225.664 7.52148 225.664 6.56445C225.664 5.55273 225.398 4.73828 224.867 4.12109C224.34 3.50391 223.617 3.19531 222.699 3.19531C221.809 3.19531 221.082 3.50195 220.52 4.11523C219.957 4.72461 219.676 5.625 219.676 6.81641C219.676 7.76953 219.916 8.57422 220.396 9.23047C220.881 9.88281 221.664 10.209 222.746 10.209ZM228.377 3.76953C228.393 3.33203 228.469 3.01172 228.605 2.80859C228.852 2.44922 229.326 2.26953 230.029 2.26953C230.096 2.26953 230.164 2.27148 230.234 2.27539C230.305 2.2793 230.385 2.28516 230.475 2.29297V3.25391C230.365 3.24609 230.285 3.24219 230.234 3.24219C230.188 3.23828 230.143 3.23633 230.1 3.23633C229.779 3.23633 229.588 3.32031 229.525 3.48828C229.463 3.65234 229.432 4.07422 229.432 4.75391H230.475V5.58594H229.42V11H228.377V5.58594H227.504V4.75391H228.377V3.76953ZM231.717 3.76953C231.732 3.33203 231.809 3.01172 231.945 2.80859C232.191 2.44922 232.666 2.26953 233.369 2.26953C233.436 2.26953 233.504 2.27148 233.574 2.27539C233.645 2.2793 233.725 2.28516 233.814 2.29297V3.25391C233.705 3.24609 233.625 3.24219 233.574 3.24219C233.527 3.23828 233.482 3.23633 233.439 3.23633C233.119 3.23633 232.928 3.32031 232.865 3.48828C232.803 3.65234 232.771 4.07422 232.771 4.75391H233.814V5.58594H232.76V11H231.717V5.58594H230.844V4.75391H231.717V3.76953ZM234.828 3.58789V2.39258H235.883V3.58789H234.828ZM234.828 4.75391H235.883V11H234.828V4.75391ZM239.873 4.54297C240.58 4.54297 241.154 4.71484 241.596 5.05859C242.041 5.40234 242.309 5.99414 242.398 6.83398H241.373C241.311 6.44727 241.168 6.12695 240.945 5.87305C240.723 5.61523 240.365 5.48633 239.873 5.48633C239.201 5.48633 238.721 5.81445 238.432 6.4707C238.244 6.89648 238.15 7.42188 238.15 8.04688C238.15 8.67578 238.283 9.20508 238.549 9.63477C238.814 10.0645 239.232 10.2793 239.803 10.2793C240.24 10.2793 240.586 10.1465 240.84 9.88086C241.098 9.61133 241.275 9.24414 241.373 8.7793H242.398C242.281 9.61133 241.988 10.2207 241.52 10.6074C241.051 10.9902 240.451 11.1816 239.721 11.1816C238.9 11.1816 238.246 10.8828 237.758 10.2852C237.27 9.68359 237.025 8.93359 237.025 8.03516C237.025 6.93359 237.293 6.07617 237.828 5.46289C238.363 4.84961 239.045 4.54297 239.873 4.54297ZM246.066 4.58398C246.512 4.58398 246.943 4.68945 247.361 4.90039C247.779 5.10742 248.098 5.37695 248.316 5.70898C248.527 6.02539 248.668 6.39453 248.738 6.81641C248.801 7.10547 248.832 7.56641 248.832 8.19922H244.232C244.252 8.83594 244.402 9.34766 244.684 9.73438C244.965 10.1172 245.4 10.3086 245.99 10.3086C246.541 10.3086 246.98 10.127 247.309 9.76367C247.496 9.55273 247.629 9.30859 247.707 9.03125H248.744C248.717 9.26172 248.625 9.51953 248.469 9.80469C248.316 10.0859 248.145 10.3164 247.953 10.4961C247.633 10.8086 247.236 11.0195 246.764 11.1289C246.51 11.1914 246.223 11.2227 245.902 11.2227C245.121 11.2227 244.459 10.9395 243.916 10.373C243.373 9.80273 243.102 9.00586 243.102 7.98242C243.102 6.97461 243.375 6.15625 243.922 5.52734C244.469 4.89844 245.184 4.58398 246.066 4.58398ZM247.748 7.36133C247.705 6.9043 247.605 6.53906 247.449 6.26562C247.16 5.75781 246.678 5.50391 246.002 5.50391C245.518 5.50391 245.111 5.67969 244.783 6.03125C244.455 6.37891 244.281 6.82227 244.262 7.36133H247.748Z" fill="#706E6E"/>
</svg>
